#!OML:ASF E:/inclinewalkrobotboard/Project1/Captureday1/Session1/subject1.ASF
:FULLY-SPECIFIED
:DEGREES
113
root 0 0 0 1.0536028778307336 -3.6783087813176945 1.8630884695826975
lowerback 11.924850502789639 0.8572606328358688 -0.05850935801496718
upperback -4.224627396709397 1.0870273663178551 -0.5567618946089822
thorax -11.298433022040367 0.4963149068798593 -0.8004186448548728
lowerneck -5.668738952126699 1.4463144632108094 4.565521310125578
upperneck 18.08183126809609 2.882554023865822 -8.318403179053625
head 6.588984549880315 1.047691322415048 -3.221494085758364
rclavicle -9.07470373849333E-16 -3.348655508233776E-16
rhumerus 20.160877544232157 14.709735169208551 -48.13958281725287
rradius 72.54549015427891
rwrist 26.737561890257645
rhand -34.75673743532084 -57.394506245464264
rfingers 7.125020000000038
rthumb -7.918060042295092 -87.30861411941028
lclavicle 8.948165554134957E-16 -1.7439212906568225E-15
lhumerus 20.851715212250145 -12.752117976320617 45.282037811305855
lradius 69.94646033073263
lwrist -22.2750670503016
lhand -44.77519875793004 -69.72545577827945
lfingers 7.1250200000000286
lthumb -17.56666416687608 -40.527334800011246
rfemur -24.89371456775837 -2.2117893047264294 17.20745637449218
rtibia 54.04905335062991
rfoot -29.07885709580802 -16.733941414552284
rtoes -17.67244347824728
lfemur -26.678751920240213 2.4062200608054027 -18.294796023272035
ltibia 54.16371484616514
lfoot -31.063056198510665 -3.5260115968637677
ltoes -19.632149971941182
114
root 0 0 0 1.0531830804153786 -3.679111019253474 1.862994973993695
lowerback 11.924768865245914 0.8571890101556533 -0.05840928303182211
upperback -4.224409837448806 1.0869594839393042 -0.5566282974652152
thorax -11.298146184808347 0.496280601989373 -0.800307891424808
lowerneck -5.667644747397022 1.4462146032089578 4.565695530598614
upperneck 18.08124123573565 2.8824933601423455 -8.318912156384126
head 6.588610244396796 1.047664532020423 -3.2216894988552887
rclavicle -8.976470679995257E-16 -3.439828829725243E-16
rhumerus 20.160169580509027 14.709855476147398 -48.140040711932805
rradius 72.54506890884413
rwrist 26.737058491544474
rhand -34.75650933856154 -57.39397793226417
rfingers 7.125020000000038
rthumb -7.917780602735538 -87.30873060859106
lclavicle 9.017056221497886E-16 -1.7504316265573404E-15
lhumerus 20.851264580041732 -12.751571448347494 45.281826443854214
lradius 69.94602529988418
lwrist -22.275456571353654
lhand -44.774914917942354 -69.7253020465876
lfingers 7.125020000000029
lthumb -17.566304698499685 -40.5270856198803
rfemur -24.89442731505949 -2.2122652531749156 17.208277239153706
rtibia 54.04865695870724
rfoot -29.07956208211658 -16.732976737658014
rtoes -17.67208843686509
lfemur -26.677185506468543 2.405856983755758 -18.29478579072229
ltibia 54.16514699677219
lfoot -31.061627379451778 -3.528374781158882
ltoes -19.63188277230889
115
root 0 0 0 1.0530437601727372 -3.6793558479931434 1.8629646082256792
lowerback 11.924769622770201 0.8571643200450411 -0.05835188541439418
upperback -4.224324160919579 1.0869379603328366 -0.5565768121526615
thorax -11.29804790167805 0.4962692170197845 -0.8002784971781685
lowerneck -5.667143585531543 1.4461425768921674 4.565747703285988
upperneck 18.080932872468292 2.8824142723483033 -8.319115509660913
head 6.588425546187197 1.0476325422994646 -3.221769526465237
rclavicle -8.970962570565462E-16 -3.4331395112553385E-16
rhumerus 20.160194684952522 14.709931753567181 -48.14002632270803
rradius 72.54510051291271
rwrist 26.736999638149037
rhand -34.75635007684858 -57.39370457217237
rfingers 7.125020000000038
rthumb -7.9176310605127656 -87.30847334225925
lclavicle 9.017198015464577E-16 -1.7498732344365584E-15
lhumerus 20.851303839841275 -12.751733416333927 45.281698502961476
lradius 69.94617789153227
lwrist -22.275506702617164
lhand -44.77484449906083 -69.7247241704015
lfingers 7.125020000000029
lthumb -17.56623841660959 -40.526513288301956
rfemur -24.8943977449418 -2.212289025806443 17.20836013996561
rtibia 54.0487118837956
rfoot -29.079473110669994 -16.73292877059742
rtoes -17.671997540354234
lfemur -26.677182211134376 2.405848636104688 -18.294755685445065
ltibia 54.16608578782111
lfoot -31.061188250798985 -3.5287854091364
ltoes -19.6315794623949
116
root 0 0 0 1.0528168494426677 -3.679773222648806 1.8629090909326957
lowerback 11.92476597985151 0.8571234500987532 -0.05825875349967502
upperback -4.224180706293805 1.0869023831633329 -0.5564903144135188
thorax -11.29788067267373 0.496250479153474 -0.8002271533379381
lowerneck -5.666338737675169 1.4460268060058654 4.565828785212774
upperneck 18.080436024740337 2.8822886992135697 -8.31944066135211
head 6.588128550794624 1.0475817771159184 -3.2218969695468833
rclavicle -8.962133450768723E-16 -3.437784064692281E-16
rhumerus 20.160504764575645 14.710275731389814 -48.13987667706727
rradius 72.54530756155117
rwrist 26.73693836036582
rhand -34.75584872139072 -57.39308086365095
rfingers 7.125020000000038
rthumb -7.917152256283698 -87.30783928633417
lclavicle 9.029117979098197E-16 -1.7502201440639978E-15
lhumerus 20.851497617749043 -12.752042383503964 45.28134454306004
lradius 69.94640541602817
lwrist -22.275571705890194
lhand -44.77468294233472 -69.72377901419847
lfingers 7.125020000000029
lthumb -17.56608452740492 -40.52554948634628
rfemur -24.894413771744553 -2.212288288041604 17.208382551485986
rtibia 54.048782421539286
rfoot -29.07946215982016 -16.73290610119816
rtoes -17.671880330478874
lfemur -26.677040358152823 2.4059517433393633 -18.294749083938108
ltibia 54.16626950512246
lfoot -31.0609480713628 -3.5287769574342756
ltoes -19.631670858580634
117
root 0 0 0 1.0526543824414185 -3.680070414738627 1.8628721513502353
lowerback 11.924760464408104 0.8570949519407062 -0.05819147489498369
upperback -4.224077941427135 1.0868777410903014 -0.5564301646823782
thorax -11.297759165193714 0.4962375369612842 -0.8001924511739311
lowerneck -5.665769490195652 1.4459464613361095 4.565894264273936
upperneck 18.080085563114157 2.882203000215318 -8.319679778638069
head 6.587918867224726 1.047546969219185 -3.2219913100663775
rclavicle -8.950533580232059E-16 -3.439503629507229E-16
rhumerus 20.16071995604408 14.710535486333367 -48.13978426140871
rradius 72.54545167549274
rwrist 26.736866088314397
rhand -34.755441380708184 -57.392508681013176
rfingers 7.125020000000038
rthumb -7.916761269504095 -87.30726615790519
lclavicle 9.042448276036384E-16 -1.7502666593590152E-15
lhumerus 20.851696812794646 -12.75238990794139 45.28102674649042
lradius 69.94664668500927
lwrist -22.27560603574446
lhand -44.77452896519431 -69.72280481559373
lfingers 7.125020000000029
lthumb -17.565934372673826 -40.524560774938436
rfemur -24.894431262663826 -2.2122885450616576 17.208387858781773
rtibia 54.048797424784794
rfoot -29.079493322864895 -16.732893630136633
rtoes -17.67187261909955
lfemur -26.676775641709558 2.4059861336185535 -18.294734276438486
ltibia 54.16615635330062
lfoot -31.06089076101665 -3.5287061855382906
ltoes -19.632073646490895
